<?xml version="1.0" encoding="utf-8"?>
<!-- Generator: Adobe Illustrator 27.5.0, SVG Export Plug-In . SVG Version: 6.00 Build 0)  -->
<svg version="1.1" id="Ebene_2" xmlns="http://www.w3.org/2000/svg" xmlns:xlink="http://www.w3.org/1999/xlink" x="0px" y="0px"
	 viewBox="0 0 317.29 50.33" style="enable-background:new 0 0 317.29 50.33;" xml:space="preserve">
<style type="text/css">
	.st0{fill:#1D71B8;}
</style>
<g>
	<path class="st0" d="M0.84,33.6c0.14-0.51,0.7-1.5,1.68-2.97c0.98-1.47,2.22-3.2,3.71-5.18c1.49-1.98,3.15-4.14,4.97-6.48
		c1.82-2.33,3.62-4.61,5.39-6.83c1.77-2.22,3.44-4.28,5.01-6.19c1.56-1.91,2.83-3.45,3.81-4.62c0.98-0.33,1.75-0.57,2.31-0.73
		c0.56-0.16,1-0.31,1.33-0.46c0.28,0.09,0.33,0.23,0.14,0.42c-0.56,0.37-0.91,0.91-1.05,1.61c-0.19,1.07-0.37,2.36-0.56,3.85
		c-0.19,1.49-0.36,3.08-0.52,4.76c-0.16,1.68-0.31,3.41-0.46,5.18c-0.14,1.77-0.26,3.45-0.35,5.04c-0.09,1.59-0.16,3.04-0.21,4.38
		c-0.05,1.33-0.07,2.39-0.07,3.18c0,0.47,0.03,0.78,0.1,0.95c0.07,0.16,0.16,0.23,0.28,0.21c0.12-0.02,0.25-0.12,0.39-0.28
		c0.14-0.16,0.28-0.34,0.42-0.52c0.51-0.65,1.35-1.69,2.52-3.11c1.17-1.42,2.5-3.03,3.99-4.83c1.49-1.8,3.08-3.68,4.76-5.64
		c1.68-1.96,3.29-3.81,4.83-5.56c1.54-1.75,2.93-3.31,4.17-4.69c1.24-1.38,2.16-2.34,2.77-2.9c0.75-0.37,1.66-0.72,2.73-1.05
		c1.07-0.33,1.94-0.7,2.59-1.12c0.14,0,0.26,0.06,0.35,0.17c0.09,0.12,0.09,0.25,0,0.38c-0.79,0.33-1.36,0.61-1.71,0.84
		c-0.35,0.23-0.64,0.68-0.88,1.33c-0.56,1.77-1.13,3.84-1.71,6.19c-0.58,2.36-1.12,4.77-1.61,7.25c-0.49,2.47-0.9,4.89-1.22,7.24
		c-0.33,2.36-0.49,4.42-0.49,6.2c0,0.65,0.15,1.11,0.46,1.36c0.3,0.26,0.67,0.38,1.08,0.38s0.89-0.05,1.4-0.14
		c0.51-0.09,0.98-0.23,1.4-0.42c0.09,0,0.15,0.06,0.18,0.17c0.02,0.12-0.01,0.22-0.1,0.32c-0.47,0.14-1.02,0.3-1.65,0.49
		c-0.63,0.19-1.26,0.38-1.89,0.56c-0.63,0.19-1.21,0.36-1.75,0.53c-0.54,0.16-0.99,0.29-1.36,0.38c-0.56,0-1.02-0.11-1.37-0.32
		s-0.57-0.59-0.67-1.16c0.05-0.65,0.21-1.73,0.49-3.22c0.28-1.49,0.63-3.17,1.05-5.04c0.42-1.87,0.88-3.83,1.37-5.88
		c0.49-2.05,0.94-3.96,1.36-5.71s0.78-3.23,1.08-4.44c0.3-1.21,0.48-1.94,0.52-2.17c0.19-0.7,0.19-1.04,0-1.02
		C49.65,4.33,49.37,4.5,49,4.83c-0.89,0.79-1.92,1.81-3.12,3.05c-1.19,1.24-2.45,2.6-3.78,4.09c-1.33,1.49-2.69,3.08-4.1,4.76
		c-1.4,1.68-2.78,3.36-4.13,5.04c-1.35,1.68-2.64,3.33-3.85,4.94c-1.21,1.61-2.29,3.09-3.22,4.44c-0.09,0.19-0.21,0.41-0.35,0.67
		c-0.14,0.26-0.26,0.55-0.35,0.88c-0.89,0.05-1.55,0.18-1.99,0.39c-0.44,0.21-0.9,0.52-1.37,0.94c-0.28,0.09-0.44,0.05-0.49-0.14
		c0.14-0.98,0.29-2.29,0.46-3.92c0.16-1.63,0.33-3.43,0.49-5.39c0.16-1.96,0.31-3.98,0.46-6.06c0.14-2.08,0.28-4.04,0.42-5.88
		c0.14-1.84,0.26-3.46,0.35-4.87c0.09-1.4,0.16-2.4,0.21-3.01c0-0.89-0.37-0.89-1.12,0c-1.35,1.54-2.95,3.48-4.79,5.81
		c-1.84,2.33-3.7,4.76-5.56,7.28c-1.87,2.52-3.63,4.99-5.29,7.42c-1.66,2.43-2.98,4.53-3.96,6.3c-0.84,1.54-1.34,2.71-1.5,3.5
		c-0.16,0.79-0.22,1.45-0.17,1.96c0.05,0.51,0,0.74-0.14,0.67c-0.14-0.07-0.28-0.24-0.42-0.52c-0.14-0.28-0.26-0.7-0.35-1.26
		C1.24,35.35,1.07,34.58,0.84,33.6z"/>
	<path class="st0" d="M80.01,23.17c-1.07,1.31-2.25,2.62-3.53,3.96c-1.28,1.33-2.58,2.53-3.89,3.6c-1.31,1.07-2.6,1.94-3.88,2.59
		c-1.28,0.65-2.46,0.98-3.54,0.98c-0.93,0-1.59-0.23-1.96-0.7c-0.37-0.47-0.56-1.05-0.56-1.75c0-0.65,0.2-1.53,0.6-2.62
		c0.4-1.1,0.99-2.27,1.78-3.53c-0.61,0.79-1.31,1.63-2.1,2.52c-0.79,0.89-1.61,1.69-2.45,2.42c-0.84,0.72-1.68,1.33-2.52,1.82
		c-0.84,0.49-1.59,0.74-2.24,0.74c-0.98,0-1.47-0.49-1.47-1.47c0-1.07,0.42-2.43,1.26-4.06c0.84-1.63,1.97-3.21,3.4-4.73
		c1.42-1.52,3.05-2.82,4.87-3.92c1.82-1.1,3.71-1.65,5.67-1.65c0.23-0.47,0.44-0.79,0.63-0.98c0.19-0.19,0.37-0.33,0.56-0.42
		l1.96-0.56l0.14,0.07c-0.23,0.23-0.46,0.52-0.67,0.88s-0.43,0.71-0.67,1.08c0.23,0,0.58,0.02,1.05,0.07
		c0.47,0.05,0.82,0.09,1.05,0.14c0.23,0.09,0.35,0.21,0.35,0.35s-0.07,0.21-0.21,0.21c-0.28-0.09-0.7-0.16-1.26-0.21
		c-0.56-0.05-0.98-0.07-1.26-0.07c-2.15,3.78-3.72,6.78-4.73,8.99c-1,2.22-1.5,3.86-1.5,4.94c0,0.42,0.1,0.77,0.31,1.05
		c0.21,0.28,0.64,0.42,1.29,0.42c0.75,0,1.63-0.27,2.66-0.8c1.03-0.54,2.12-1.28,3.29-2.24c1.17-0.96,2.37-2.06,3.6-3.33
		c1.24-1.26,2.42-2.59,3.53-3.99c0.09-0.14,0.19-0.18,0.28-0.1C79.96,22.92,80.01,23.03,80.01,23.17z M69.09,17.85
		c-1.59,0-3.1,0.56-4.55,1.68c-1.45,1.12-2.73,2.44-3.85,3.96C59.57,25,58.67,26.51,58,28c-0.68,1.49-1.02,2.59-1.02,3.29
		c0,0.37,0.14,0.56,0.42,0.56c0.28,0,0.71-0.19,1.29-0.56c0.58-0.37,1.25-0.88,2-1.51c0.75-0.63,1.5-1.36,2.27-2.21
		c0.77-0.84,1.48-1.75,2.14-2.73c0.75-1.12,1.47-2.31,2.17-3.57c0.7-1.26,1.33-2.38,1.89-3.36L69.09,17.85z"/>
	<path class="st0" d="M93.73,27.3c-2.38,2.52-4.48,4.25-6.3,5.18c-1.82,0.93-3.41,1.4-4.76,1.4c-0.93,0-1.6-0.25-2-0.74
		c-0.4-0.49-0.6-1.25-0.6-2.27c0-0.47,0.1-1.19,0.31-2.17s0.41-1.87,0.6-2.66c-1.96,1.17-3.6,2.31-4.94,3.43s-2.42,2.24-3.25,3.36
		c-0.84,1.12-1.45,2.29-1.82,3.5c-0.37,1.21-0.56,2.5-0.56,3.85c0,2.57,0.82,4.72,2.45,6.47s3.9,2.62,6.79,2.62
		c1.54,0,3.07-0.35,4.58-1.05c1.52-0.7,2.86-1.66,4.02-2.87c0.14-0.19,0.3-0.22,0.49-0.1c0.19,0.12,0.16,0.29-0.07,0.52
		c-1.73,1.49-3.48,2.62-5.25,3.4c-1.77,0.77-3.73,1.16-5.88,1.16c-1.21,0-2.36-0.18-3.43-0.53c-1.07-0.35-2.02-0.91-2.83-1.68
		c-0.82-0.77-1.47-1.76-1.96-2.98c-0.49-1.21-0.73-2.66-0.73-4.34c0-2.8,1.06-5.47,3.19-8.01s5.24-5.01,9.35-7.39
		c0.14-0.47,0.28-0.98,0.42-1.54s0.27-1.11,0.38-1.65c0.12-0.54,0.21-1.01,0.28-1.44c0.07-0.42,0.1-0.72,0.1-0.91
		c0-0.65-0.26-0.98-0.77-0.98c-0.37,0-0.73,0.05-1.08,0.14c-0.35,0.09-0.71,0.21-1.08,0.35c-0.09-0.05-0.13-0.12-0.1-0.21
		c0.02-0.09,0.06-0.19,0.1-0.28c0.37-0.14,0.82-0.3,1.33-0.49c0.51-0.19,1.03-0.35,1.54-0.49c0.51-0.14,0.99-0.27,1.44-0.39
		c0.44-0.12,0.76-0.17,0.95-0.17c0.51,0,0.77,0.21,0.77,0.63c0,0.14-0.04,0.31-0.1,0.52c-0.07,0.21-0.19,0.54-0.35,0.98
		c-0.16,0.44-0.37,1.05-0.63,1.82c-0.26,0.77-0.6,1.78-1.02,3.04c2.05-1.21,3.78-2.32,5.18-3.33c1.4-1,2.1-2.04,2.1-3.11
		c0-0.19-0.02-0.33-0.07-0.42l0.14-0.14c0.23,0.05,0.56,0.17,0.98,0.38c0.42,0.21,0.63,0.5,0.63,0.88c0,0.42-0.29,0.89-0.88,1.4
		c-0.58,0.51-1.33,1.05-2.24,1.61c-0.91,0.56-1.89,1.12-2.94,1.68c-1.05,0.56-2.06,1.12-3.04,1.68c-0.23,0.93-0.4,1.88-0.49,2.83
		c-0.09,0.96-0.14,1.65-0.14,2.06c0,0.93,0.19,1.61,0.56,2.03c0.37,0.42,1.07,0.63,2.1,0.63c0.28,0,0.65-0.06,1.12-0.17
		c0.47-0.12,1.03-0.37,1.68-0.77c0.65-0.4,1.41-0.94,2.27-1.64c0.86-0.7,1.85-1.63,2.98-2.8c0.09-0.09,0.21-0.13,0.35-0.1
		C93.73,27.08,93.78,27.16,93.73,27.3z"/>
	<path class="st0" d="M104.79,33.6c0.14-0.51,0.7-1.5,1.68-2.97c0.98-1.47,2.22-3.2,3.71-5.18c1.49-1.98,3.15-4.14,4.97-6.48
		c1.82-2.33,3.62-4.61,5.39-6.83c1.77-2.22,3.44-4.28,5.01-6.19c1.56-1.91,2.83-3.45,3.81-4.62c0.98-0.33,1.75-0.57,2.31-0.73
		c0.56-0.16,1-0.31,1.33-0.46c0.28,0.09,0.33,0.23,0.14,0.42c-0.56,0.37-0.91,0.91-1.05,1.61c-0.19,1.07-0.37,2.36-0.56,3.85
		c-0.19,1.49-0.36,3.08-0.52,4.76c-0.16,1.68-0.31,3.41-0.46,5.18c-0.14,1.77-0.26,3.45-0.35,5.04c-0.09,1.59-0.16,3.04-0.21,4.38
		c-0.05,1.33-0.07,2.39-0.07,3.18c0,0.47,0.03,0.78,0.1,0.95c0.07,0.16,0.16,0.23,0.28,0.21c0.12-0.02,0.25-0.12,0.39-0.28
		c0.14-0.16,0.28-0.34,0.42-0.52c0.51-0.65,1.35-1.69,2.52-3.11c1.17-1.42,2.5-3.03,3.99-4.83c1.49-1.8,3.08-3.68,4.76-5.64
		c1.68-1.96,3.29-3.81,4.83-5.56c1.54-1.75,2.93-3.31,4.17-4.69c1.24-1.38,2.16-2.34,2.77-2.9c0.75-0.37,1.66-0.72,2.73-1.05
		c1.07-0.33,1.94-0.7,2.59-1.12c0.14,0,0.26,0.06,0.35,0.17c0.09,0.12,0.09,0.25,0,0.38c-0.79,0.33-1.36,0.61-1.71,0.84
		c-0.35,0.23-0.64,0.68-0.88,1.33c-0.56,1.77-1.13,3.84-1.71,6.19c-0.58,2.36-1.12,4.77-1.61,7.25c-0.49,2.47-0.9,4.89-1.22,7.24
		c-0.33,2.36-0.49,4.42-0.49,6.2c0,0.65,0.15,1.11,0.46,1.36c0.3,0.26,0.67,0.38,1.08,0.38s0.89-0.05,1.4-0.14
		c0.51-0.09,0.98-0.23,1.4-0.42c0.09,0,0.15,0.06,0.18,0.17c0.02,0.12-0.01,0.22-0.1,0.32c-0.47,0.14-1.02,0.3-1.65,0.49
		c-0.63,0.19-1.26,0.38-1.89,0.56c-0.63,0.19-1.21,0.36-1.75,0.53c-0.54,0.16-0.99,0.29-1.36,0.38c-0.56,0-1.02-0.11-1.37-0.32
		s-0.57-0.59-0.67-1.16c0.05-0.65,0.21-1.73,0.49-3.22c0.28-1.49,0.63-3.17,1.05-5.04c0.42-1.87,0.88-3.83,1.37-5.88
		c0.49-2.05,0.94-3.96,1.36-5.71s0.78-3.23,1.08-4.44c0.3-1.21,0.48-1.94,0.52-2.17c0.19-0.7,0.19-1.04,0-1.02
		c-0.19,0.02-0.47,0.2-0.84,0.52c-0.89,0.79-1.92,1.81-3.12,3.05c-1.19,1.24-2.45,2.6-3.78,4.09c-1.33,1.49-2.69,3.08-4.1,4.76
		c-1.4,1.68-2.78,3.36-4.13,5.04c-1.35,1.68-2.64,3.33-3.85,4.94c-1.21,1.61-2.29,3.09-3.22,4.44c-0.09,0.19-0.21,0.41-0.35,0.67
		c-0.14,0.26-0.26,0.55-0.35,0.88c-0.89,0.05-1.55,0.18-1.99,0.39c-0.44,0.21-0.9,0.52-1.37,0.94c-0.28,0.09-0.44,0.05-0.49-0.14
		c0.14-0.98,0.29-2.29,0.46-3.92c0.16-1.63,0.33-3.43,0.49-5.39c0.16-1.96,0.31-3.98,0.46-6.06c0.14-2.08,0.28-4.04,0.42-5.88
		c0.14-1.84,0.26-3.46,0.35-4.87c0.09-1.4,0.16-2.4,0.21-3.01c0-0.89-0.37-0.89-1.12,0c-1.35,1.54-2.95,3.48-4.79,5.81
		c-1.84,2.33-3.7,4.76-5.56,7.28c-1.87,2.52-3.63,4.99-5.29,7.42c-1.66,2.43-2.98,4.53-3.96,6.3c-0.84,1.54-1.34,2.71-1.5,3.5
		c-0.16,0.79-0.22,1.45-0.17,1.96c0.05,0.51,0,0.74-0.14,0.67c-0.14-0.07-0.28-0.24-0.42-0.52c-0.14-0.28-0.26-0.7-0.35-1.26
		C105.19,35.35,105.02,34.58,104.79,33.6z"/>
	<path class="st0" d="M181.3,24.36c-0.79,1.12-1.73,2.3-2.8,3.53c-1.07,1.24-2.19,2.37-3.36,3.4c-1.17,1.03-2.36,1.88-3.57,2.55
		c-1.21,0.68-2.36,1.01-3.43,1.01c-0.79,0-1.41-0.21-1.85-0.63c-0.44-0.42-0.67-1.07-0.67-1.96c0-0.42,0.06-0.9,0.18-1.43
		c0.12-0.54,0.31-1.13,0.59-1.79c-0.28,0.33-0.59,0.71-0.94,1.15c-0.35,0.44-0.75,0.86-1.19,1.26c-0.44,0.4-0.93,0.72-1.47,0.98
		c-0.54,0.26-1.13,0.39-1.79,0.39c-0.51,0-0.93-0.15-1.26-0.46c-0.33-0.3-0.49-0.78-0.49-1.44c0-0.37,0.08-0.84,0.25-1.4
		c0.16-0.56,0.47-1.32,0.91-2.27c0.44-0.96,1.05-2.15,1.82-3.57c0.77-1.42,1.76-3.19,2.98-5.29c0.23-0.47,0.44-0.7,0.63-0.7
		c0.33,0,0.67,0.2,1.02,0.59c0.35,0.4,0.52,0.67,0.52,0.81s-0.14,0.42-0.42,0.84c-0.75,1.12-1.45,2.24-2.1,3.36
		c-0.65,1.12-1.23,2.17-1.71,3.15c-0.49,0.98-0.89,1.85-1.19,2.62c-0.3,0.77-0.46,1.36-0.46,1.79c0,0.7,0.26,1.05,0.77,1.05
		c0.47,0,1.11-0.36,1.92-1.08c0.82-0.72,1.79-1.95,2.91-3.68c0.42-0.75,0.85-1.53,1.29-2.34c0.44-0.82,0.88-1.6,1.29-2.35
		c0.42-0.75,0.82-1.44,1.19-2.06c0.37-0.63,0.65-1.11,0.84-1.44c0.23-0.33,0.42-0.49,0.56-0.49c0.19,0,0.4,0.2,0.63,0.59
		c0.23,0.4,0.35,0.88,0.35,1.44c0,0.37-0.09,0.72-0.28,1.05c-0.56,0.84-1.15,1.67-1.79,2.49c-0.63,0.82-1.21,1.67-1.75,2.55
		c-0.54,0.89-0.99,1.82-1.36,2.8c-0.37,0.98-0.56,2.05-0.56,3.22c0,1.03,0.49,1.54,1.47,1.54c0.65,0,1.44-0.25,2.35-0.74
		s1.9-1.18,2.98-2.07c1.07-0.89,2.18-1.96,3.32-3.22c1.14-1.26,2.23-2.64,3.26-4.13C181.16,23.92,181.3,24.03,181.3,24.36z"/>
	<path class="st0" d="M187.95,19.95c-0.14,0.23-0.26,0.26-0.35,0.07c-0.28-0.61-0.86-0.91-1.75-0.91c-0.65,0-1.31,0.19-1.96,0.56
		c-0.65,0.37-0.98,0.93-0.98,1.68c0,0.37,0.12,0.75,0.35,1.12c0.23,0.37,0.56,0.86,0.98,1.47c0.37,0.56,0.72,1.12,1.05,1.68
		c0.33,0.56,0.49,1.14,0.49,1.75c0,1.21-0.28,2.21-0.84,2.98c-0.56,0.77-1.23,1.39-2,1.86s-1.55,0.78-2.34,0.94
		c-0.79,0.16-1.42,0.25-1.89,0.25c-2.85,0-4.41-0.96-4.69-2.87c0.23-0.14,0.5-0.31,0.8-0.52c0.3-0.21,0.53-0.41,0.67-0.59
		c0.09,0,0.16,0.09,0.21,0.28c0.23,0.84,0.68,1.56,1.33,2.17c0.65,0.61,1.42,0.91,2.31,0.91c0.37,0,0.82-0.04,1.33-0.11
		c0.51-0.07,0.99-0.23,1.44-0.49c0.44-0.26,0.83-0.62,1.15-1.08c0.33-0.47,0.49-1.1,0.49-1.89c0-0.61-0.12-1.17-0.35-1.68
		c-0.23-0.51-0.49-0.98-0.77-1.4c-0.28-0.47-0.56-0.93-0.84-1.4c-0.28-0.47-0.42-0.98-0.42-1.54s0.2-1.17,0.59-1.82
		c0.4-0.65,0.9-1.25,1.5-1.78c0.61-0.54,1.27-0.99,2-1.37c0.72-0.37,1.44-0.56,2.14-0.56c0.75,0,1.12,0.23,1.12,0.7
		c-0.14,0.23-0.28,0.5-0.42,0.8C188.16,19.45,188.04,19.72,187.95,19.95z"/>
	<path class="st0" d="M206.71,7.21c-0.37,0.09-0.79,0.27-1.26,0.52c-0.47,0.26-0.82,0.57-1.05,0.94c-1.07,1.49-2.11,3.06-3.12,4.69
		c-1,1.63-1.97,3.27-2.9,4.9h8.68c0.14,0.09,0.21,0.19,0.21,0.28c0,0.09-0.05,0.16-0.14,0.21c-0.37,0-0.93,0.01-1.68,0.04
		c-0.75,0.02-1.56,0.06-2.45,0.1c-0.89,0.05-1.8,0.09-2.73,0.14c-0.93,0.05-1.75,0.09-2.45,0.14c-1.31,2.33-2.31,4.32-3.01,5.95
		c-0.7,1.63-1.05,3.06-1.05,4.27c0,1.68,0.77,2.52,2.31,2.52c0.75,0,1.6-0.2,2.55-0.59c0.96-0.4,1.97-0.92,3.05-1.58
		c0.14-0.14,0.28-0.13,0.42,0.03c0.14,0.16,0.09,0.29-0.14,0.39c-1.59,1.03-3.06,1.77-4.41,2.24c-1.35,0.47-2.73,0.7-4.13,0.7
		c-0.75,0-1.4-0.22-1.96-0.67c-0.56-0.44-0.84-1.2-0.84-2.27c0-0.93,0.42-2.31,1.26-4.13c0.84-1.82,2.08-4.06,3.71-6.72
		c-0.56,0.05-1.25,0.1-2.06,0.17c-0.82,0.07-1.29,0.1-1.44,0.1c-0.23,0-0.35-0.09-0.35-0.28c0.19-0.33,0.49-0.65,0.91-0.98
		l3.57-0.07c0.42-0.7,0.89-1.48,1.4-2.34c0.51-0.86,1.03-1.73,1.54-2.59c0.51-0.86,1.04-1.7,1.57-2.52
		c0.54-0.82,1.02-1.58,1.44-2.28c0.51-0.23,1.23-0.54,2.14-0.91c0.91-0.37,1.71-0.68,2.42-0.91c0.09,0,0.16,0.06,0.21,0.17
		C206.97,7.01,206.9,7.12,206.71,7.21z"/>
	<path class="st0" d="M221.9,24.43c-0.79,0.98-1.74,2-2.83,3.04c-1.1,1.05-2.29,2.01-3.57,2.87c-1.28,0.86-2.61,1.56-3.99,2.1
		c-1.38,0.54-2.74,0.81-4.09,0.81c-2.19,0-3.29-0.98-3.29-2.94c0-1.31,0.34-2.72,1.02-4.23c0.68-1.52,1.55-2.92,2.62-4.2
		c1.07-1.28,2.25-2.36,3.53-3.22c1.28-0.86,2.51-1.29,3.68-1.29c0.65,0,1.11,0.12,1.36,0.35c0.26,0.23,0.39,0.54,0.39,0.91
		c0,0.56-0.18,1.17-0.52,1.82c-0.35,0.65-0.88,1.27-1.58,1.85c-0.7,0.58-1.59,1.07-2.66,1.47c-1.07,0.4-2.36,0.6-3.85,0.6
		c-0.23,0.42-0.49,1.08-0.77,2c-0.28,0.91-0.42,1.83-0.42,2.76c0,1.91,0.86,2.87,2.59,2.87c1.07,0,2.18-0.26,3.32-0.77
		c1.14-0.51,2.25-1.15,3.33-1.92c1.07-0.77,2.06-1.61,2.98-2.52c0.91-0.91,1.67-1.76,2.27-2.56c0.09-0.09,0.2-0.12,0.31-0.07
		C221.84,24.2,221.9,24.29,221.9,24.43z M214.55,18.97c0-0.61-0.3-0.91-0.91-0.91c-0.47,0-0.94,0.18-1.44,0.53
		c-0.49,0.35-0.97,0.8-1.44,1.36c-0.47,0.56-0.91,1.17-1.33,1.82c-0.42,0.65-0.77,1.28-1.05,1.89c0.09,0.05,0.26,0.08,0.49,0.1
		c0.23,0.02,0.42,0.04,0.56,0.04c1.35,0,2.54-0.48,3.57-1.44C214.04,21.41,214.55,20.28,214.55,18.97z"/>
	<path class="st0" d="M234.15,18.48c-0.28,0.33-0.57,0.72-0.88,1.19c-0.3,0.47-0.5,0.82-0.6,1.05c-0.05,0.14-0.14,0.21-0.28,0.21
		c-0.05,0-0.12-0.07-0.21-0.21c-0.09-0.14-0.22-0.29-0.38-0.46c-0.16-0.16-0.38-0.31-0.67-0.46c-0.28-0.14-0.68-0.21-1.19-0.21
		c-0.61,0-1.28,0.21-2.03,0.63c-0.75,0.42-1.4,0.89-1.96,1.4c-0.89,0.75-1.67,1.56-2.34,2.45c-0.68,0.89-1.32,1.81-1.93,2.77
		c-0.61,0.96-1.19,1.94-1.75,2.94c-0.56,1-1.17,2.02-1.82,3.05c-0.05,0.14-0.19,0.21-0.42,0.21c-0.09,0-0.29-0.14-0.6-0.42
		c-0.3-0.28-0.45-0.49-0.45-0.63c0-0.28,0.16-0.7,0.49-1.26c0.75-1.31,1.5-2.62,2.27-3.96s1.49-2.58,2.17-3.75
		c0.68-1.17,1.27-2.18,1.79-3.04c0.51-0.86,0.86-1.5,1.05-1.93c0.23-0.42,0.4-0.63,0.49-0.63c0.09,0,0.33,0.12,0.7,0.35
		c0.37,0.23,0.56,0.56,0.56,0.98c0,0.14-0.08,0.37-0.25,0.7c-0.16,0.33-0.35,0.67-0.56,1.01c-0.21,0.35-0.41,0.69-0.6,1.02
		c-0.19,0.33-0.33,0.56-0.42,0.7c-0.14,0.23-0.16,0.35-0.07,0.35c0.09,0,0.21-0.07,0.35-0.21c0.47-0.47,1.04-0.98,1.71-1.54
		c0.68-0.56,1.39-1.08,2.13-1.57c0.75-0.49,1.48-0.9,2.21-1.23c0.72-0.33,1.37-0.49,1.93-0.49c0.42,0,0.78,0.1,1.08,0.31
		C234,18.02,234.15,18.25,234.15,18.48z"/>
	<path class="st0" d="M258.72,26.74c-0.65,0.75-1.44,1.59-2.35,2.52c-0.91,0.93-1.88,1.82-2.9,2.66c-1.03,0.84-2.09,1.54-3.19,2.1
		c-1.1,0.56-2.16,0.84-3.19,0.84c-0.93,0-1.59-0.19-1.96-0.56c-0.37-0.37-0.56-0.96-0.56-1.75c0-0.51,0.27-1.35,0.81-2.52
		c0.54-1.17,1.13-2.38,1.78-3.64c0.65-1.26,1.25-2.46,1.79-3.6c0.54-1.14,0.81-1.95,0.81-2.42c0-0.28-0.12-0.42-0.35-0.42
		c-0.61,0.33-1.29,0.81-2.06,1.44s-1.53,1.32-2.27,2.06c-0.75,0.75-1.44,1.47-2.07,2.17c-0.63,0.7-1.11,1.28-1.43,1.75
		c-0.33,0.47-0.65,1.03-0.98,1.68c-0.33,0.65-0.64,1.28-0.94,1.89c-0.3,0.61-0.61,1.12-0.91,1.54c-0.3,0.42-0.57,0.63-0.8,0.63
		c-0.23,0-0.44-0.12-0.63-0.35c-0.19-0.23-0.28-0.47-0.28-0.7c0-0.14,0.07-0.38,0.21-0.73c0.14-0.35,0.4-0.78,0.77-1.3
		c0.61-0.84,1.16-1.73,1.65-2.66c0.49-0.93,0.91-1.8,1.26-2.59c0.35-0.79,0.62-1.47,0.8-2.03c0.19-0.56,0.28-0.89,0.28-0.98
		c0-0.37-0.09-0.56-0.28-0.56c-0.28,0-0.76,0.29-1.44,0.88c-0.68,0.58-1.41,1.29-2.2,2.13c-0.79,0.84-1.58,1.73-2.35,2.66
		c-0.77,0.93-1.41,1.77-1.92,2.52c-0.65,0.98-1.21,1.84-1.68,2.59c-0.47,0.75-0.82,1.12-1.05,1.12c-0.37,0-0.6-0.16-0.67-0.49
		c-0.07-0.33-0.1-0.65-0.1-0.98c0-0.37,0.09-0.68,0.28-0.91c1.26-2.01,2.5-4.06,3.71-6.16c1.21-2.1,2.43-4.18,3.64-6.23
		c0.23-0.42,0.49-0.63,0.77-0.63c0.23,0,0.44,0.13,0.63,0.38c0.19,0.26,0.28,0.5,0.28,0.73c-0.33,0.93-0.89,2.08-1.68,3.43
		c-0.79,1.35-1.49,2.59-2.1,3.71c1.87-2.15,3.43-3.77,4.69-4.86c1.26-1.1,2.29-1.65,3.08-1.65c0.51,0,0.77,0.35,0.77,1.05
		c0,0.47-0.21,1.18-0.63,2.13c-0.42,0.96-0.79,1.74-1.12,2.35c-0.09,0.19-0.1,0.27-0.04,0.25c0.07-0.02,0.15-0.08,0.25-0.18
		c0.56-0.65,1.2-1.34,1.92-2.06c0.72-0.72,1.49-1.41,2.31-2.06c0.82-0.65,1.63-1.26,2.45-1.82c0.82-0.56,1.57-1,2.27-1.33
		c0.7,0,1.05,0.33,1.05,0.98c0,0.14-0.02,0.28-0.07,0.42c-0.05,0.14-0.12,0.3-0.21,0.49c-0.23,0.51-0.67,1.35-1.29,2.52
		c-0.63,1.17-1.27,2.42-1.93,3.74c-0.65,1.33-1.22,2.61-1.71,3.85c-0.49,1.24-0.73,2.18-0.73,2.84c0,0.93,0.44,1.4,1.33,1.4
		c0.84,0,1.73-0.28,2.66-0.84c0.93-0.56,1.87-1.24,2.8-2.03c0.93-0.79,1.8-1.62,2.59-2.48c0.79-0.86,1.47-1.62,2.03-2.27
		c0.19-0.28,0.37-0.4,0.56-0.35C259.04,26.09,259,26.32,258.72,26.74z"/>
	<path class="st0" d="M280.98,23.17c-1.07,1.31-2.25,2.62-3.54,3.96c-1.28,1.33-2.58,2.53-3.88,3.6c-1.31,1.07-2.6,1.94-3.88,2.59
		c-1.29,0.65-2.46,0.98-3.54,0.98c-0.93,0-1.59-0.23-1.96-0.7c-0.37-0.47-0.56-1.05-0.56-1.75c0-0.65,0.2-1.53,0.6-2.62
		c0.4-1.1,0.99-2.27,1.78-3.53c-0.61,0.79-1.31,1.63-2.1,2.52c-0.79,0.89-1.61,1.69-2.45,2.42c-0.84,0.72-1.68,1.33-2.52,1.82
		c-0.84,0.49-1.59,0.74-2.24,0.74c-0.98,0-1.47-0.49-1.47-1.47c0-1.07,0.42-2.43,1.26-4.06c0.84-1.63,1.97-3.21,3.4-4.73
		c1.42-1.52,3.05-2.82,4.87-3.92c1.82-1.1,3.71-1.65,5.67-1.65c0.23-0.47,0.44-0.79,0.63-0.98c0.19-0.19,0.37-0.33,0.56-0.42
		l1.96-0.56l0.14,0.07c-0.23,0.23-0.46,0.52-0.67,0.88c-0.21,0.35-0.43,0.71-0.66,1.08c0.23,0,0.58,0.02,1.05,0.07
		c0.47,0.05,0.82,0.09,1.05,0.14c0.23,0.09,0.35,0.21,0.35,0.35s-0.07,0.21-0.21,0.21c-0.28-0.09-0.7-0.16-1.26-0.21
		c-0.56-0.05-0.98-0.07-1.26-0.07c-2.15,3.78-3.72,6.78-4.72,8.99c-1,2.22-1.5,3.86-1.5,4.94c0,0.42,0.1,0.77,0.31,1.05
		c0.21,0.28,0.64,0.42,1.3,0.42c0.75,0,1.63-0.27,2.66-0.8c1.03-0.54,2.12-1.28,3.29-2.24c1.17-0.96,2.37-2.06,3.61-3.33
		c1.24-1.26,2.41-2.59,3.54-3.99c0.09-0.14,0.19-0.18,0.28-0.1C280.93,22.92,280.98,23.03,280.98,23.17z M270.06,17.85
		c-1.59,0-3.1,0.56-4.55,1.68c-1.45,1.12-2.73,2.44-3.85,3.96c-1.12,1.52-2.02,3.02-2.69,4.52c-0.68,1.49-1.02,2.59-1.02,3.29
		c0,0.37,0.14,0.56,0.42,0.56c0.28,0,0.71-0.19,1.29-0.56c0.58-0.37,1.25-0.88,2-1.51c0.75-0.63,1.5-1.36,2.27-2.21
		c0.77-0.84,1.48-1.75,2.14-2.73c0.75-1.12,1.47-2.31,2.17-3.57c0.7-1.26,1.33-2.38,1.89-3.36L270.06,17.85z"/>
	<path class="st0" d="M298.83,23.73c-0.84,1.17-1.81,2.34-2.91,3.53c-1.1,1.19-2.26,2.25-3.5,3.19c-1.24,0.93-2.5,1.7-3.78,2.31
		s-2.53,0.91-3.74,0.91c-0.56,0-1.07-0.08-1.54-0.25c-0.47-0.16-0.7-0.57-0.7-1.22c0-0.65,0.23-1.48,0.7-2.49
		c0.47-1,1.01-2.06,1.64-3.19s1.28-2.26,1.96-3.43c0.68-1.17,1.22-2.24,1.65-3.22c0.09-0.23,0.1-0.43,0.03-0.6
		c-0.07-0.16-0.22-0.17-0.46-0.03c-0.51,0.33-1.12,0.77-1.82,1.33s-1.41,1.16-2.13,1.79c-0.72,0.63-1.42,1.27-2.1,1.92
		c-0.68,0.65-1.22,1.24-1.64,1.75c-0.75,1.17-1.39,2.24-1.93,3.22s-1.2,2.08-1.99,3.29c-0.19,0.28-0.33,0.42-0.42,0.42
		c-0.23,0-0.43-0.26-0.6-0.77c-0.16-0.51-0.25-0.84-0.25-0.98c0-0.42,0.29-0.99,0.88-1.71c0.58-0.72,1.23-1.53,1.93-2.42
		c0.75-1.49,1.52-3.07,2.31-4.73c0.79-1.66,1.47-3.14,2.03-4.44c0.14-0.23,0.35-0.35,0.63-0.35s0.54,0.12,0.77,0.35
		c0.23,0.23,0.35,0.49,0.35,0.77c0,0.19-0.34,0.83-1.02,1.92c-0.68,1.1-1.34,2.37-2,3.81c0.89-0.79,1.86-1.63,2.91-2.52
		c1.05-0.89,2.05-1.7,3.01-2.45c0.96-0.75,1.8-1.37,2.52-1.85c0.72-0.49,1.22-0.74,1.5-0.74c0.19,0,0.36,0.1,0.53,0.31
		c0.16,0.21,0.25,0.41,0.25,0.6c0,0.19-0.12,0.47-0.35,0.84c-0.51,0.75-1.14,1.7-1.89,2.87c-0.75,1.17-1.46,2.37-2.13,3.6
		c-0.68,1.24-1.25,2.42-1.72,3.54c-0.47,1.12-0.7,2.01-0.7,2.66c0,0.56,0.12,0.94,0.35,1.15c0.23,0.21,0.61,0.32,1.12,0.32
		c0.79,0,1.73-0.3,2.8-0.91c1.07-0.61,2.18-1.36,3.33-2.27c1.14-0.91,2.23-1.92,3.25-3.04c1.03-1.12,1.87-2.19,2.52-3.22
		c0.09-0.14,0.23-0.17,0.42-0.1C299.08,23.27,299.06,23.45,298.83,23.73z"/>
	<path class="st0" d="M317.1,23.73c-0.84,1.17-1.81,2.34-2.91,3.53c-1.1,1.19-2.26,2.25-3.5,3.19c-1.24,0.93-2.5,1.7-3.78,2.31
		s-2.53,0.91-3.74,0.91c-0.56,0-1.07-0.08-1.54-0.25c-0.47-0.16-0.7-0.57-0.7-1.22c0-0.65,0.23-1.48,0.7-2.49
		c0.47-1,1.01-2.06,1.64-3.19s1.28-2.26,1.96-3.43c0.68-1.17,1.22-2.24,1.65-3.22c0.09-0.23,0.1-0.43,0.03-0.6
		c-0.07-0.16-0.22-0.17-0.46-0.03c-0.51,0.33-1.12,0.77-1.82,1.33s-1.41,1.16-2.13,1.79c-0.72,0.63-1.42,1.27-2.1,1.92
		c-0.68,0.65-1.22,1.24-1.64,1.75c-0.75,1.17-1.39,2.24-1.93,3.22s-1.2,2.08-1.99,3.29c-0.19,0.28-0.33,0.42-0.42,0.42
		c-0.23,0-0.43-0.26-0.6-0.77c-0.16-0.51-0.25-0.84-0.25-0.98c0-0.42,0.29-0.99,0.88-1.71c0.58-0.72,1.23-1.53,1.93-2.42
		c0.75-1.49,1.52-3.07,2.31-4.73c0.79-1.66,1.47-3.14,2.03-4.44c0.14-0.23,0.35-0.35,0.63-0.35s0.54,0.12,0.77,0.35
		c0.23,0.23,0.35,0.49,0.35,0.77c0,0.19-0.34,0.83-1.02,1.92c-0.68,1.1-1.34,2.37-2,3.81c0.89-0.79,1.86-1.63,2.91-2.52
		c1.05-0.89,2.05-1.7,3.01-2.45c0.96-0.75,1.8-1.37,2.52-1.85c0.72-0.49,1.22-0.74,1.5-0.74c0.19,0,0.36,0.1,0.53,0.31
		c0.16,0.21,0.25,0.41,0.25,0.6c0,0.19-0.12,0.47-0.35,0.84c-0.51,0.75-1.14,1.7-1.89,2.87c-0.75,1.17-1.46,2.37-2.13,3.6
		c-0.68,1.24-1.25,2.42-1.72,3.54c-0.47,1.12-0.7,2.01-0.7,2.66c0,0.56,0.12,0.94,0.35,1.15c0.23,0.21,0.61,0.32,1.12,0.32
		c0.79,0,1.73-0.3,2.8-0.91c1.07-0.61,2.18-1.36,3.33-2.27c1.14-0.91,2.23-1.92,3.25-3.04c1.03-1.12,1.87-2.19,2.52-3.22
		c0.09-0.14,0.23-0.17,0.42-0.1C317.35,23.27,317.33,23.45,317.1,23.73z"/>
</g>
</svg>
